<mxfile host="app.diagrams.net" modified="2024-03-02T00:28:47.124Z" agent="Mozilla/5.0 (Macintosh; Intel Mac OS X 10_15_7) AppleWebKit/537.36 (KHTML, like Gecko) Chrome/122.0.0.0 Safari/537.36" etag="apDVdnJBphFQPKcBAvyY" version="24.0.0" type="device">
  <diagram id="C5RBs43oDa-KdzZeNtuy" name="Page-1">
    <mxGraphModel dx="1781" dy="1757" grid="1" gridSize="10" guides="1" tooltips="1" connect="1" arrows="1" fold="1" page="1" pageScale="1" pageWidth="827" pageHeight="1169" math="0" shadow="0">
      <root>
        <mxCell id="WIyWlLk6GJQsqaUBKTNV-0" />
        <mxCell id="WIyWlLk6GJQsqaUBKTNV-1" parent="WIyWlLk6GJQsqaUBKTNV-0" />
        <mxCell id="zkfFHV4jXpPFQw0GAbJ--0" value="TravelPackage" style="swimlane;fontStyle=2;align=center;verticalAlign=top;childLayout=stackLayout;horizontal=1;startSize=26;horizontalStack=0;resizeParent=1;resizeLast=0;collapsible=1;marginBottom=0;rounded=0;shadow=0;strokeWidth=1;" parent="WIyWlLk6GJQsqaUBKTNV-1" vertex="1">
          <mxGeometry x="20" y="50" width="360" height="762" as="geometry">
            <mxRectangle x="230" y="140" width="160" height="26" as="alternateBounds" />
          </mxGeometry>
        </mxCell>
        <mxCell id="zkfFHV4jXpPFQw0GAbJ--1" value="field(int) : travelID" style="text;align=left;verticalAlign=top;spacingLeft=4;spacingRight=4;overflow=hidden;rotatable=0;points=[[0,0.5],[1,0.5]];portConstraint=eastwest;" parent="zkfFHV4jXpPFQw0GAbJ--0" vertex="1">
          <mxGeometry y="26" width="360" height="26" as="geometry" />
        </mxCell>
        <mxCell id="zkfFHV4jXpPFQw0GAbJ--2" value="field(String) : travelPackageName" style="text;align=left;verticalAlign=top;spacingLeft=4;spacingRight=4;overflow=hidden;rotatable=0;points=[[0,0.5],[1,0.5]];portConstraint=eastwest;rounded=0;shadow=0;html=0;" parent="zkfFHV4jXpPFQw0GAbJ--0" vertex="1">
          <mxGeometry y="52" width="360" height="26" as="geometry" />
        </mxCell>
        <mxCell id="zkfFHV4jXpPFQw0GAbJ--3" value="field(int) : passengerCapacity" style="text;align=left;verticalAlign=top;spacingLeft=4;spacingRight=4;overflow=hidden;rotatable=0;points=[[0,0.5],[1,0.5]];portConstraint=eastwest;rounded=0;shadow=0;html=0;" parent="zkfFHV4jXpPFQw0GAbJ--0" vertex="1">
          <mxGeometry y="78" width="360" height="26" as="geometry" />
        </mxCell>
        <mxCell id="ML5cCSZE7fHTFNNnrcKf-0" value="field(List&lt;Destination&gt;) : destinationList" style="text;align=left;verticalAlign=top;spacingLeft=4;spacingRight=4;overflow=hidden;rotatable=0;points=[[0,0.5],[1,0.5]];portConstraint=eastwest;rounded=0;shadow=0;html=0;" vertex="1" parent="zkfFHV4jXpPFQw0GAbJ--0">
          <mxGeometry y="104" width="360" height="26" as="geometry" />
        </mxCell>
        <mxCell id="ML5cCSZE7fHTFNNnrcKf-1" value="field(List&lt;Passenger&gt;) : passengerList" style="text;align=left;verticalAlign=top;spacingLeft=4;spacingRight=4;overflow=hidden;rotatable=0;points=[[0,0.5],[1,0.5]];portConstraint=eastwest;rounded=0;shadow=0;html=0;" vertex="1" parent="zkfFHV4jXpPFQw0GAbJ--0">
          <mxGeometry y="130" width="360" height="26" as="geometry" />
        </mxCell>
        <mxCell id="ML5cCSZE7fHTFNNnrcKf-2" value="field(List&lt;Passenger&gt;) : subscribedPassengerList" style="text;align=left;verticalAlign=top;spacingLeft=4;spacingRight=4;overflow=hidden;rotatable=0;points=[[0,0.5],[1,0.5]];portConstraint=eastwest;rounded=0;shadow=0;html=0;" vertex="1" parent="zkfFHV4jXpPFQw0GAbJ--0">
          <mxGeometry y="156" width="360" height="26" as="geometry" />
        </mxCell>
        <mxCell id="ML5cCSZE7fHTFNNnrcKf-51" value="getter : getTravelPkgId" style="text;align=left;verticalAlign=top;spacingLeft=4;spacingRight=4;overflow=hidden;rotatable=0;points=[[0,0.5],[1,0.5]];portConstraint=eastwest;rounded=0;shadow=0;html=0;" vertex="1" parent="zkfFHV4jXpPFQw0GAbJ--0">
          <mxGeometry y="182" width="360" height="26" as="geometry" />
        </mxCell>
        <mxCell id="ML5cCSZE7fHTFNNnrcKf-52" value="setter : setTravelPkgId(int)" style="text;align=left;verticalAlign=top;spacingLeft=4;spacingRight=4;overflow=hidden;rotatable=0;points=[[0,0.5],[1,0.5]];portConstraint=eastwest;rounded=0;shadow=0;html=0;" vertex="1" parent="zkfFHV4jXpPFQw0GAbJ--0">
          <mxGeometry y="208" width="360" height="26" as="geometry" />
        </mxCell>
        <mxCell id="ML5cCSZE7fHTFNNnrcKf-56" value="getter : getTravelPkgPassengerCapacity" style="text;align=left;verticalAlign=top;spacingLeft=4;spacingRight=4;overflow=hidden;rotatable=0;points=[[0,0.5],[1,0.5]];portConstraint=eastwest;rounded=0;shadow=0;html=0;" vertex="1" parent="zkfFHV4jXpPFQw0GAbJ--0">
          <mxGeometry y="234" width="360" height="26" as="geometry" />
        </mxCell>
        <mxCell id="ML5cCSZE7fHTFNNnrcKf-55" value="setter : setTravelPkgPassengerCapacity(int)" style="text;align=left;verticalAlign=top;spacingLeft=4;spacingRight=4;overflow=hidden;rotatable=0;points=[[0,0.5],[1,0.5]];portConstraint=eastwest;rounded=0;shadow=0;html=0;" vertex="1" parent="zkfFHV4jXpPFQw0GAbJ--0">
          <mxGeometry y="260" width="360" height="26" as="geometry" />
        </mxCell>
        <mxCell id="ML5cCSZE7fHTFNNnrcKf-57" value="method(void) : updateTravelPkgPassengerCapacity(int)" style="text;align=left;verticalAlign=top;spacingLeft=4;spacingRight=4;overflow=hidden;rotatable=0;points=[[0,0.5],[1,0.5]];portConstraint=eastwest;rounded=0;shadow=0;html=0;" vertex="1" parent="zkfFHV4jXpPFQw0GAbJ--0">
          <mxGeometry y="286" width="360" height="26" as="geometry" />
        </mxCell>
        <mxCell id="ML5cCSZE7fHTFNNnrcKf-58" value="getter : getTravelPkgName" style="text;align=left;verticalAlign=top;spacingLeft=4;spacingRight=4;overflow=hidden;rotatable=0;points=[[0,0.5],[1,0.5]];portConstraint=eastwest;rounded=0;shadow=0;html=0;" vertex="1" parent="zkfFHV4jXpPFQw0GAbJ--0">
          <mxGeometry y="312" width="360" height="26" as="geometry" />
        </mxCell>
        <mxCell id="ML5cCSZE7fHTFNNnrcKf-59" value="setter : setTravelPkgName(String)" style="text;align=left;verticalAlign=top;spacingLeft=4;spacingRight=4;overflow=hidden;rotatable=0;points=[[0,0.5],[1,0.5]];portConstraint=eastwest;rounded=0;shadow=0;html=0;" vertex="1" parent="zkfFHV4jXpPFQw0GAbJ--0">
          <mxGeometry y="338" width="360" height="26" as="geometry" />
        </mxCell>
        <mxCell id="ML5cCSZE7fHTFNNnrcKf-60" value="method(Destination) : getDestinationByIdFromDestList(id)" style="text;align=left;verticalAlign=top;spacingLeft=4;spacingRight=4;overflow=hidden;rotatable=0;points=[[0,0.5],[1,0.5]];portConstraint=eastwest;rounded=0;shadow=0;html=0;" vertex="1" parent="zkfFHV4jXpPFQw0GAbJ--0">
          <mxGeometry y="364" width="360" height="26" as="geometry" />
        </mxCell>
        <mxCell id="ML5cCSZE7fHTFNNnrcKf-61" value="method(Passenger) : getDestinationByIdFromDestList(id)" style="text;align=left;verticalAlign=top;spacingLeft=4;spacingRight=4;overflow=hidden;rotatable=0;points=[[0,0.5],[1,0.5]];portConstraint=eastwest;rounded=0;shadow=0;html=0;" vertex="1" parent="zkfFHV4jXpPFQw0GAbJ--0">
          <mxGeometry y="390" width="360" height="26" as="geometry" />
        </mxCell>
        <mxCell id="ML5cCSZE7fHTFNNnrcKf-62" value="method(List&lt;Destination&gt;) : getDestinationList" style="text;align=left;verticalAlign=top;spacingLeft=4;spacingRight=4;overflow=hidden;rotatable=0;points=[[0,0.5],[1,0.5]];portConstraint=eastwest;rounded=0;shadow=0;html=0;" vertex="1" parent="zkfFHV4jXpPFQw0GAbJ--0">
          <mxGeometry y="416" width="360" height="26" as="geometry" />
        </mxCell>
        <mxCell id="ML5cCSZE7fHTFNNnrcKf-63" value="method(void) : addDestinationInList(Destination)" style="text;align=left;verticalAlign=top;spacingLeft=4;spacingRight=4;overflow=hidden;rotatable=0;points=[[0,0.5],[1,0.5]];portConstraint=eastwest;rounded=0;shadow=0;html=0;" vertex="1" parent="zkfFHV4jXpPFQw0GAbJ--0">
          <mxGeometry y="442" width="360" height="26" as="geometry" />
        </mxCell>
        <mxCell id="ML5cCSZE7fHTFNNnrcKf-65" value="method(List&lt;Passenger&gt;) : getPassengerList" style="text;align=left;verticalAlign=top;spacingLeft=4;spacingRight=4;overflow=hidden;rotatable=0;points=[[0,0.5],[1,0.5]];portConstraint=eastwest;rounded=0;shadow=0;html=0;" vertex="1" parent="zkfFHV4jXpPFQw0GAbJ--0">
          <mxGeometry y="468" width="360" height="26" as="geometry" />
        </mxCell>
        <mxCell id="ML5cCSZE7fHTFNNnrcKf-66" value="method(void) : addPassengerInList(Passenger)" style="text;align=left;verticalAlign=top;spacingLeft=4;spacingRight=4;overflow=hidden;rotatable=0;points=[[0,0.5],[1,0.5]];portConstraint=eastwest;rounded=0;shadow=0;html=0;" vertex="1" parent="zkfFHV4jXpPFQw0GAbJ--0">
          <mxGeometry y="494" width="360" height="26" as="geometry" />
        </mxCell>
        <mxCell id="ML5cCSZE7fHTFNNnrcKf-67" value="method(List&lt;Passenger&gt;) : getSubscribedPassengerList" style="text;align=left;verticalAlign=top;spacingLeft=4;spacingRight=4;overflow=hidden;rotatable=0;points=[[0,0.5],[1,0.5]];portConstraint=eastwest;rounded=0;shadow=0;html=0;" vertex="1" parent="zkfFHV4jXpPFQw0GAbJ--0">
          <mxGeometry y="520" width="360" height="26" as="geometry" />
        </mxCell>
        <mxCell id="ML5cCSZE7fHTFNNnrcKf-68" value="method(void) : addSubscribedPassengerInList(Passenger)" style="text;align=left;verticalAlign=top;spacingLeft=4;spacingRight=4;overflow=hidden;rotatable=0;points=[[0,0.5],[1,0.5]];portConstraint=eastwest;rounded=0;shadow=0;html=0;" vertex="1" parent="zkfFHV4jXpPFQw0GAbJ--0">
          <mxGeometry y="546" width="360" height="26" as="geometry" />
        </mxCell>
        <mxCell id="ML5cCSZE7fHTFNNnrcKf-69" value="method(boolean) : isPassengerExhausted" style="text;align=left;verticalAlign=top;spacingLeft=4;spacingRight=4;overflow=hidden;rotatable=0;points=[[0,0.5],[1,0.5]];portConstraint=eastwest;rounded=0;shadow=0;html=0;" vertex="1" parent="zkfFHV4jXpPFQw0GAbJ--0">
          <mxGeometry y="572" width="360" height="26" as="geometry" />
        </mxCell>
        <mxCell id="ML5cCSZE7fHTFNNnrcKf-70" value="getter : getFilteredDestination" style="text;align=left;verticalAlign=top;spacingLeft=4;spacingRight=4;overflow=hidden;rotatable=0;points=[[0,0.5],[1,0.5]];portConstraint=eastwest;rounded=0;shadow=0;html=0;" vertex="1" parent="zkfFHV4jXpPFQw0GAbJ--0">
          <mxGeometry y="598" width="360" height="26" as="geometry" />
        </mxCell>
        <mxCell id="ML5cCSZE7fHTFNNnrcKf-71" value="setter : setFilteredDestination(Destination)" style="text;align=left;verticalAlign=top;spacingLeft=4;spacingRight=4;overflow=hidden;rotatable=0;points=[[0,0.5],[1,0.5]];portConstraint=eastwest;rounded=0;shadow=0;html=0;" vertex="1" parent="zkfFHV4jXpPFQw0GAbJ--0">
          <mxGeometry y="624" width="360" height="26" as="geometry" />
        </mxCell>
        <mxCell id="ML5cCSZE7fHTFNNnrcKf-72" value="method(void) : filterDestinationById(int)" style="text;align=left;verticalAlign=top;spacingLeft=4;spacingRight=4;overflow=hidden;rotatable=0;points=[[0,0.5],[1,0.5]];portConstraint=eastwest;rounded=0;shadow=0;html=0;" vertex="1" parent="zkfFHV4jXpPFQw0GAbJ--0">
          <mxGeometry y="650" width="360" height="26" as="geometry" />
        </mxCell>
        <mxCell id="ML5cCSZE7fHTFNNnrcKf-73" value="method(void) : printTravelPkgDetails" style="text;align=left;verticalAlign=top;spacingLeft=4;spacingRight=4;overflow=hidden;rotatable=0;points=[[0,0.5],[1,0.5]];portConstraint=eastwest;rounded=0;shadow=0;html=0;" vertex="1" parent="zkfFHV4jXpPFQw0GAbJ--0">
          <mxGeometry y="676" width="360" height="26" as="geometry" />
        </mxCell>
        <mxCell id="ML5cCSZE7fHTFNNnrcKf-10" value="Activity" style="swimlane;fontStyle=2;align=center;verticalAlign=top;childLayout=stackLayout;horizontal=1;startSize=26;horizontalStack=0;resizeParent=1;resizeLast=0;collapsible=1;marginBottom=0;rounded=0;shadow=0;strokeWidth=1;" vertex="1" parent="WIyWlLk6GJQsqaUBKTNV-1">
          <mxGeometry x="710" y="1080" width="420" height="560" as="geometry">
            <mxRectangle x="230" y="140" width="160" height="26" as="alternateBounds" />
          </mxGeometry>
        </mxCell>
        <mxCell id="ML5cCSZE7fHTFNNnrcKf-11" value="field(int) : destinationID" style="text;align=left;verticalAlign=top;spacingLeft=4;spacingRight=4;overflow=hidden;rotatable=0;points=[[0,0.5],[1,0.5]];portConstraint=eastwest;" vertex="1" parent="ML5cCSZE7fHTFNNnrcKf-10">
          <mxGeometry y="26" width="420" height="26" as="geometry" />
        </mxCell>
        <mxCell id="ML5cCSZE7fHTFNNnrcKf-12" value="field(int) : activityID" style="text;align=left;verticalAlign=top;spacingLeft=4;spacingRight=4;overflow=hidden;rotatable=0;points=[[0,0.5],[1,0.5]];portConstraint=eastwest;rounded=0;shadow=0;html=0;" vertex="1" parent="ML5cCSZE7fHTFNNnrcKf-10">
          <mxGeometry y="52" width="420" height="26" as="geometry" />
        </mxCell>
        <mxCell id="ML5cCSZE7fHTFNNnrcKf-13" value="field(String) : activityName" style="text;align=left;verticalAlign=top;spacingLeft=4;spacingRight=4;overflow=hidden;rotatable=0;points=[[0,0.5],[1,0.5]];portConstraint=eastwest;rounded=0;shadow=0;html=0;" vertex="1" parent="ML5cCSZE7fHTFNNnrcKf-10">
          <mxGeometry y="78" width="420" height="26" as="geometry" />
        </mxCell>
        <mxCell id="ML5cCSZE7fHTFNNnrcKf-14" value="field(String) : activityDescription" style="text;align=left;verticalAlign=top;spacingLeft=4;spacingRight=4;overflow=hidden;rotatable=0;points=[[0,0.5],[1,0.5]];portConstraint=eastwest;rounded=0;shadow=0;html=0;" vertex="1" parent="ML5cCSZE7fHTFNNnrcKf-10">
          <mxGeometry y="104" width="420" height="26" as="geometry" />
        </mxCell>
        <mxCell id="ML5cCSZE7fHTFNNnrcKf-15" value="field(double) : activityCost" style="text;align=left;verticalAlign=top;spacingLeft=4;spacingRight=4;overflow=hidden;rotatable=0;points=[[0,0.5],[1,0.5]];portConstraint=eastwest;rounded=0;shadow=0;html=0;" vertex="1" parent="ML5cCSZE7fHTFNNnrcKf-10">
          <mxGeometry y="130" width="420" height="26" as="geometry" />
        </mxCell>
        <mxCell id="ML5cCSZE7fHTFNNnrcKf-16" value="field(int) : activityCapacity" style="text;align=left;verticalAlign=top;spacingLeft=4;spacingRight=4;overflow=hidden;rotatable=0;points=[[0,0.5],[1,0.5]];portConstraint=eastwest;rounded=0;shadow=0;html=0;" vertex="1" parent="ML5cCSZE7fHTFNNnrcKf-10">
          <mxGeometry y="156" width="420" height="26" as="geometry" />
        </mxCell>
        <mxCell id="ML5cCSZE7fHTFNNnrcKf-135" value="getter(int) : getActivityId" style="text;align=left;verticalAlign=top;spacingLeft=4;spacingRight=4;overflow=hidden;rotatable=0;points=[[0,0.5],[1,0.5]];portConstraint=eastwest;rounded=0;shadow=0;html=0;" vertex="1" parent="ML5cCSZE7fHTFNNnrcKf-10">
          <mxGeometry y="182" width="420" height="26" as="geometry" />
        </mxCell>
        <mxCell id="ML5cCSZE7fHTFNNnrcKf-136" value="setter(void) : getActivityId(int)" style="text;align=left;verticalAlign=top;spacingLeft=4;spacingRight=4;overflow=hidden;rotatable=0;points=[[0,0.5],[1,0.5]];portConstraint=eastwest;rounded=0;shadow=0;html=0;" vertex="1" parent="ML5cCSZE7fHTFNNnrcKf-10">
          <mxGeometry y="208" width="420" height="26" as="geometry" />
        </mxCell>
        <mxCell id="ML5cCSZE7fHTFNNnrcKf-137" value="getter(double) : getActivityCost" style="text;align=left;verticalAlign=top;spacingLeft=4;spacingRight=4;overflow=hidden;rotatable=0;points=[[0,0.5],[1,0.5]];portConstraint=eastwest;rounded=0;shadow=0;html=0;" vertex="1" parent="ML5cCSZE7fHTFNNnrcKf-10">
          <mxGeometry y="234" width="420" height="26" as="geometry" />
        </mxCell>
        <mxCell id="ML5cCSZE7fHTFNNnrcKf-138" value="setter(void) : getActivityCost(double)" style="text;align=left;verticalAlign=top;spacingLeft=4;spacingRight=4;overflow=hidden;rotatable=0;points=[[0,0.5],[1,0.5]];portConstraint=eastwest;rounded=0;shadow=0;html=0;" vertex="1" parent="ML5cCSZE7fHTFNNnrcKf-10">
          <mxGeometry y="260" width="420" height="26" as="geometry" />
        </mxCell>
        <mxCell id="ML5cCSZE7fHTFNNnrcKf-139" value="getter(int) : getActivityCapacity" style="text;align=left;verticalAlign=top;spacingLeft=4;spacingRight=4;overflow=hidden;rotatable=0;points=[[0,0.5],[1,0.5]];portConstraint=eastwest;rounded=0;shadow=0;html=0;" vertex="1" parent="ML5cCSZE7fHTFNNnrcKf-10">
          <mxGeometry y="286" width="420" height="26" as="geometry" />
        </mxCell>
        <mxCell id="ML5cCSZE7fHTFNNnrcKf-140" value="setter(void) : getActivityCapacity(int)" style="text;align=left;verticalAlign=top;spacingLeft=4;spacingRight=4;overflow=hidden;rotatable=0;points=[[0,0.5],[1,0.5]];portConstraint=eastwest;rounded=0;shadow=0;html=0;" vertex="1" parent="ML5cCSZE7fHTFNNnrcKf-10">
          <mxGeometry y="312" width="420" height="26" as="geometry" />
        </mxCell>
        <mxCell id="ML5cCSZE7fHTFNNnrcKf-141" value="getter(String) : getActivityName" style="text;align=left;verticalAlign=top;spacingLeft=4;spacingRight=4;overflow=hidden;rotatable=0;points=[[0,0.5],[1,0.5]];portConstraint=eastwest;rounded=0;shadow=0;html=0;" vertex="1" parent="ML5cCSZE7fHTFNNnrcKf-10">
          <mxGeometry y="338" width="420" height="26" as="geometry" />
        </mxCell>
        <mxCell id="ML5cCSZE7fHTFNNnrcKf-142" value="setter(void) : setActivityName(String)" style="text;align=left;verticalAlign=top;spacingLeft=4;spacingRight=4;overflow=hidden;rotatable=0;points=[[0,0.5],[1,0.5]];portConstraint=eastwest;rounded=0;shadow=0;html=0;" vertex="1" parent="ML5cCSZE7fHTFNNnrcKf-10">
          <mxGeometry y="364" width="420" height="26" as="geometry" />
        </mxCell>
        <mxCell id="ML5cCSZE7fHTFNNnrcKf-143" value="getter(String) : getActivityDescription" style="text;align=left;verticalAlign=top;spacingLeft=4;spacingRight=4;overflow=hidden;rotatable=0;points=[[0,0.5],[1,0.5]];portConstraint=eastwest;rounded=0;shadow=0;html=0;" vertex="1" parent="ML5cCSZE7fHTFNNnrcKf-10">
          <mxGeometry y="390" width="420" height="26" as="geometry" />
        </mxCell>
        <mxCell id="ML5cCSZE7fHTFNNnrcKf-144" value="setter(void) : setActivityDescription(String)" style="text;align=left;verticalAlign=top;spacingLeft=4;spacingRight=4;overflow=hidden;rotatable=0;points=[[0,0.5],[1,0.5]];portConstraint=eastwest;rounded=0;shadow=0;html=0;" vertex="1" parent="ML5cCSZE7fHTFNNnrcKf-10">
          <mxGeometry y="416" width="420" height="26" as="geometry" />
        </mxCell>
        <mxCell id="ML5cCSZE7fHTFNNnrcKf-145" value="method(boolean) : onActivitySubscription(TravelPackage, Activity, Passenger)%3CmxGraphModel%3E%3Croot%3E%3CmxCell%20id%3D%220%22%2F%3E%3CmxCell%20id%3D%221%22%20parent%3D%220%22%2F%3E%3CmxCell%20id%3D%222%22%20value%3D%22setter(void)%20%3A%20setActivityDescription(String)%22%20style%3D%22text%3Balign%3Dleft%3BverticalAlign%3Dtop%3BspacingLeft%3D4%3BspacingRight%3D4%3Boverflow%3Dhidden%3Brotatable%3D0%3Bpoints%3D%5B%5B0%2C0.5%5D%2C%5B1%2C0.5%5D%5D%3BportConstraint%3Deastwest%3Brounded%3D0%3Bshadow%3D0%3Bhtml%3D0%3B%22%20vertex%3D%221%22%20parent%3D%221%22%3E%3CmxGeometry%20x%3D%22120%22%20y%3D%222176%22%20width%3D%22420%22%20height%3D%2226%22%20as%3D%22geometry%22%2F%3E%3C%2FmxCell%3E%3C%2Froot%3E%3C%2FmxGraphModel%3E" style="text;align=left;verticalAlign=top;spacingLeft=4;spacingRight=4;overflow=hidden;rotatable=0;points=[[0,0.5],[1,0.5]];portConstraint=eastwest;rounded=0;shadow=0;html=0;" vertex="1" parent="ML5cCSZE7fHTFNNnrcKf-10">
          <mxGeometry y="442" width="420" height="26" as="geometry" />
        </mxCell>
        <mxCell id="ML5cCSZE7fHTFNNnrcKf-146" value="method(void) : printDestinationDetailsUsingTravelObj(TravelPackage)" style="text;align=left;verticalAlign=top;spacingLeft=4;spacingRight=4;overflow=hidden;rotatable=0;points=[[0,0.5],[1,0.5]];portConstraint=eastwest;rounded=0;shadow=0;html=0;" vertex="1" parent="ML5cCSZE7fHTFNNnrcKf-10">
          <mxGeometry y="468" width="420" height="26" as="geometry" />
        </mxCell>
        <mxCell id="ML5cCSZE7fHTFNNnrcKf-17" value="Passenger" style="swimlane;fontStyle=2;align=center;verticalAlign=top;childLayout=stackLayout;horizontal=1;startSize=26;horizontalStack=0;resizeParent=1;resizeLast=0;collapsible=1;marginBottom=0;rounded=0;shadow=0;strokeWidth=1;" vertex="1" parent="WIyWlLk6GJQsqaUBKTNV-1">
          <mxGeometry x="590" y="60" width="630" height="840" as="geometry">
            <mxRectangle x="230" y="140" width="160" height="26" as="alternateBounds" />
          </mxGeometry>
        </mxCell>
        <mxCell id="ML5cCSZE7fHTFNNnrcKf-18" value="field(int) : destinationID" style="text;align=left;verticalAlign=top;spacingLeft=4;spacingRight=4;overflow=hidden;rotatable=0;points=[[0,0.5],[1,0.5]];portConstraint=eastwest;" vertex="1" parent="ML5cCSZE7fHTFNNnrcKf-17">
          <mxGeometry y="26" width="630" height="26" as="geometry" />
        </mxCell>
        <mxCell id="ML5cCSZE7fHTFNNnrcKf-19" value="field(int) : activityID" style="text;align=left;verticalAlign=top;spacingLeft=4;spacingRight=4;overflow=hidden;rotatable=0;points=[[0,0.5],[1,0.5]];portConstraint=eastwest;rounded=0;shadow=0;html=0;" vertex="1" parent="ML5cCSZE7fHTFNNnrcKf-17">
          <mxGeometry y="52" width="630" height="26" as="geometry" />
        </mxCell>
        <mxCell id="ML5cCSZE7fHTFNNnrcKf-20" value="field(int) : passengerID" style="text;align=left;verticalAlign=top;spacingLeft=4;spacingRight=4;overflow=hidden;rotatable=0;points=[[0,0.5],[1,0.5]];portConstraint=eastwest;rounded=0;shadow=0;html=0;" vertex="1" parent="ML5cCSZE7fHTFNNnrcKf-17">
          <mxGeometry y="78" width="630" height="26" as="geometry" />
        </mxCell>
        <mxCell id="ML5cCSZE7fHTFNNnrcKf-21" value="field(String) : passengerName" style="text;align=left;verticalAlign=top;spacingLeft=4;spacingRight=4;overflow=hidden;rotatable=0;points=[[0,0.5],[1,0.5]];portConstraint=eastwest;rounded=0;shadow=0;html=0;" vertex="1" parent="ML5cCSZE7fHTFNNnrcKf-17">
          <mxGeometry y="104" width="630" height="26" as="geometry" />
        </mxCell>
        <mxCell id="ML5cCSZE7fHTFNNnrcKf-22" value="field(double) : balance" style="text;align=left;verticalAlign=top;spacingLeft=4;spacingRight=4;overflow=hidden;rotatable=0;points=[[0,0.5],[1,0.5]];portConstraint=eastwest;rounded=0;shadow=0;html=0;" vertex="1" parent="ML5cCSZE7fHTFNNnrcKf-17">
          <mxGeometry y="130" width="630" height="26" as="geometry" />
        </mxCell>
        <mxCell id="ML5cCSZE7fHTFNNnrcKf-23" value="field(PassengerTypeEnum) : passengerType" style="text;align=left;verticalAlign=top;spacingLeft=4;spacingRight=4;overflow=hidden;rotatable=0;points=[[0,0.5],[1,0.5]];portConstraint=eastwest;rounded=0;shadow=0;html=0;" vertex="1" parent="ML5cCSZE7fHTFNNnrcKf-17">
          <mxGeometry y="156" width="630" height="24" as="geometry" />
        </mxCell>
        <mxCell id="ML5cCSZE7fHTFNNnrcKf-24" value="field(boolean) : isSubscribedToAnActivity" style="text;align=left;verticalAlign=top;spacingLeft=4;spacingRight=4;overflow=hidden;rotatable=0;points=[[0,0.5],[1,0.5]];portConstraint=eastwest;rounded=0;shadow=0;html=0;" vertex="1" parent="ML5cCSZE7fHTFNNnrcKf-17">
          <mxGeometry y="180" width="630" height="24" as="geometry" />
        </mxCell>
        <mxCell id="ML5cCSZE7fHTFNNnrcKf-76" value="field(List&lt;Activity&gt;) : subscribedActivityList" style="text;align=left;verticalAlign=top;spacingLeft=4;spacingRight=4;overflow=hidden;rotatable=0;points=[[0,0.5],[1,0.5]];portConstraint=eastwest;rounded=0;shadow=0;html=0;" vertex="1" parent="ML5cCSZE7fHTFNNnrcKf-17">
          <mxGeometry y="204" width="630" height="24" as="geometry" />
        </mxCell>
        <mxCell id="ML5cCSZE7fHTFNNnrcKf-78" value="getter(int) : getPassengerId" style="text;align=left;verticalAlign=top;spacingLeft=4;spacingRight=4;overflow=hidden;rotatable=0;points=[[0,0.5],[1,0.5]];portConstraint=eastwest;rounded=0;shadow=0;html=0;" vertex="1" parent="ML5cCSZE7fHTFNNnrcKf-17">
          <mxGeometry y="228" width="630" height="26" as="geometry" />
        </mxCell>
        <mxCell id="ML5cCSZE7fHTFNNnrcKf-77" value="setter(void) : setPassengerId(int)" style="text;align=left;verticalAlign=top;spacingLeft=4;spacingRight=4;overflow=hidden;rotatable=0;points=[[0,0.5],[1,0.5]];portConstraint=eastwest;rounded=0;shadow=0;html=0;" vertex="1" parent="ML5cCSZE7fHTFNNnrcKf-17">
          <mxGeometry y="254" width="630" height="26" as="geometry" />
        </mxCell>
        <mxCell id="ML5cCSZE7fHTFNNnrcKf-79" value="getter(int) : getActivityId" style="text;align=left;verticalAlign=top;spacingLeft=4;spacingRight=4;overflow=hidden;rotatable=0;points=[[0,0.5],[1,0.5]];portConstraint=eastwest;rounded=0;shadow=0;html=0;" vertex="1" parent="ML5cCSZE7fHTFNNnrcKf-17">
          <mxGeometry y="280" width="630" height="26" as="geometry" />
        </mxCell>
        <mxCell id="ML5cCSZE7fHTFNNnrcKf-80" value="setter(void) : setActivityId(int)" style="text;align=left;verticalAlign=top;spacingLeft=4;spacingRight=4;overflow=hidden;rotatable=0;points=[[0,0.5],[1,0.5]];portConstraint=eastwest;rounded=0;shadow=0;html=0;" vertex="1" parent="ML5cCSZE7fHTFNNnrcKf-17">
          <mxGeometry y="306" width="630" height="26" as="geometry" />
        </mxCell>
        <mxCell id="ML5cCSZE7fHTFNNnrcKf-81" value="getter(int) : getDestinationId" style="text;align=left;verticalAlign=top;spacingLeft=4;spacingRight=4;overflow=hidden;rotatable=0;points=[[0,0.5],[1,0.5]];portConstraint=eastwest;rounded=0;shadow=0;html=0;" vertex="1" parent="ML5cCSZE7fHTFNNnrcKf-17">
          <mxGeometry y="332" width="630" height="26" as="geometry" />
        </mxCell>
        <mxCell id="ML5cCSZE7fHTFNNnrcKf-82" value="setter(void) : setDestinationId(int)" style="text;align=left;verticalAlign=top;spacingLeft=4;spacingRight=4;overflow=hidden;rotatable=0;points=[[0,0.5],[1,0.5]];portConstraint=eastwest;rounded=0;shadow=0;html=0;" vertex="1" parent="ML5cCSZE7fHTFNNnrcKf-17">
          <mxGeometry y="358" width="630" height="26" as="geometry" />
        </mxCell>
        <mxCell id="ML5cCSZE7fHTFNNnrcKf-85" value="getter(double) : getBalance" style="text;align=left;verticalAlign=top;spacingLeft=4;spacingRight=4;overflow=hidden;rotatable=0;points=[[0,0.5],[1,0.5]];portConstraint=eastwest;rounded=0;shadow=0;html=0;" vertex="1" parent="ML5cCSZE7fHTFNNnrcKf-17">
          <mxGeometry y="384" width="630" height="26" as="geometry" />
        </mxCell>
        <mxCell id="ML5cCSZE7fHTFNNnrcKf-86" value="setter(void) : setBalance(double)" style="text;align=left;verticalAlign=top;spacingLeft=4;spacingRight=4;overflow=hidden;rotatable=0;points=[[0,0.5],[1,0.5]];portConstraint=eastwest;rounded=0;shadow=0;html=0;" vertex="1" parent="ML5cCSZE7fHTFNNnrcKf-17">
          <mxGeometry y="410" width="630" height="26" as="geometry" />
        </mxCell>
        <mxCell id="ML5cCSZE7fHTFNNnrcKf-87" value="method(void) : updateBalance(double)" style="text;align=left;verticalAlign=top;spacingLeft=4;spacingRight=4;overflow=hidden;rotatable=0;points=[[0,0.5],[1,0.5]];portConstraint=eastwest;rounded=0;shadow=0;html=0;" vertex="1" parent="ML5cCSZE7fHTFNNnrcKf-17">
          <mxGeometry y="436" width="630" height="26" as="geometry" />
        </mxCell>
        <mxCell id="ML5cCSZE7fHTFNNnrcKf-88" value="getter(String) : getPassengerName" style="text;align=left;verticalAlign=top;spacingLeft=4;spacingRight=4;overflow=hidden;rotatable=0;points=[[0,0.5],[1,0.5]];portConstraint=eastwest;rounded=0;shadow=0;html=0;" vertex="1" parent="ML5cCSZE7fHTFNNnrcKf-17">
          <mxGeometry y="462" width="630" height="26" as="geometry" />
        </mxCell>
        <mxCell id="ML5cCSZE7fHTFNNnrcKf-89" value="setter(void) : setPassengerName(String)" style="text;align=left;verticalAlign=top;spacingLeft=4;spacingRight=4;overflow=hidden;rotatable=0;points=[[0,0.5],[1,0.5]];portConstraint=eastwest;rounded=0;shadow=0;html=0;" vertex="1" parent="ML5cCSZE7fHTFNNnrcKf-17">
          <mxGeometry y="488" width="630" height="26" as="geometry" />
        </mxCell>
        <mxCell id="ML5cCSZE7fHTFNNnrcKf-90" value="getter(PassengerTypeEnum) : getPassengerType" style="text;align=left;verticalAlign=top;spacingLeft=4;spacingRight=4;overflow=hidden;rotatable=0;points=[[0,0.5],[1,0.5]];portConstraint=eastwest;rounded=0;shadow=0;html=0;" vertex="1" parent="ML5cCSZE7fHTFNNnrcKf-17">
          <mxGeometry y="514" width="630" height="26" as="geometry" />
        </mxCell>
        <mxCell id="ML5cCSZE7fHTFNNnrcKf-91" value="setter(void) : setPassengerType(int)" style="text;align=left;verticalAlign=top;spacingLeft=4;spacingRight=4;overflow=hidden;rotatable=0;points=[[0,0.5],[1,0.5]];portConstraint=eastwest;rounded=0;shadow=0;html=0;" vertex="1" parent="ML5cCSZE7fHTFNNnrcKf-17">
          <mxGeometry y="540" width="630" height="26" as="geometry" />
        </mxCell>
        <mxCell id="ML5cCSZE7fHTFNNnrcKf-94" value="getter(boolean) : getIsSubscribedToAnActivity" style="text;align=left;verticalAlign=top;spacingLeft=4;spacingRight=4;overflow=hidden;rotatable=0;points=[[0,0.5],[1,0.5]];portConstraint=eastwest;rounded=0;shadow=0;html=0;" vertex="1" parent="ML5cCSZE7fHTFNNnrcKf-17">
          <mxGeometry y="566" width="630" height="26" as="geometry" />
        </mxCell>
        <mxCell id="ML5cCSZE7fHTFNNnrcKf-95" value="setter(void) : setIsSubscribedToAnActivity(boolean)" style="text;align=left;verticalAlign=top;spacingLeft=4;spacingRight=4;overflow=hidden;rotatable=0;points=[[0,0.5],[1,0.5]];portConstraint=eastwest;rounded=0;shadow=0;html=0;" vertex="1" parent="ML5cCSZE7fHTFNNnrcKf-17">
          <mxGeometry y="592" width="630" height="26" as="geometry" />
        </mxCell>
        <mxCell id="ML5cCSZE7fHTFNNnrcKf-96" value="getter(List&lt;Activity&gt;) : getSubscribedActivityList" style="text;align=left;verticalAlign=top;spacingLeft=4;spacingRight=4;overflow=hidden;rotatable=0;points=[[0,0.5],[1,0.5]];portConstraint=eastwest;rounded=0;shadow=0;html=0;" vertex="1" parent="ML5cCSZE7fHTFNNnrcKf-17">
          <mxGeometry y="618" width="630" height="26" as="geometry" />
        </mxCell>
        <mxCell id="ML5cCSZE7fHTFNNnrcKf-97" value="method(void) : addActivityInList(Activity)" style="text;align=left;verticalAlign=top;spacingLeft=4;spacingRight=4;overflow=hidden;rotatable=0;points=[[0,0.5],[1,0.5]];portConstraint=eastwest;rounded=0;shadow=0;html=0;" vertex="1" parent="ML5cCSZE7fHTFNNnrcKf-17">
          <mxGeometry y="644" width="630" height="26" as="geometry" />
        </mxCell>
        <mxCell id="ML5cCSZE7fHTFNNnrcKf-98" value="method(boolean) : isPassengerAllowedForSubscription(Activity, TravelPackage, PassengerTypeEnum, double)" style="text;align=left;verticalAlign=top;spacingLeft=4;spacingRight=4;overflow=hidden;rotatable=0;points=[[0,0.5],[1,0.5]];portConstraint=eastwest;rounded=0;shadow=0;html=0;" vertex="1" parent="ML5cCSZE7fHTFNNnrcKf-17">
          <mxGeometry y="670" width="630" height="26" as="geometry" />
        </mxCell>
        <mxCell id="ML5cCSZE7fHTFNNnrcKf-99" value="method(boolean) : subscribePassenger(Activity, TravelPackage)" style="text;align=left;verticalAlign=top;spacingLeft=4;spacingRight=4;overflow=hidden;rotatable=0;points=[[0,0.5],[1,0.5]];portConstraint=eastwest;rounded=0;shadow=0;html=0;" vertex="1" parent="ML5cCSZE7fHTFNNnrcKf-17">
          <mxGeometry y="696" width="630" height="26" as="geometry" />
        </mxCell>
        <mxCell id="ML5cCSZE7fHTFNNnrcKf-100" value="method(String) : getPassengerType(PassengerTypeEnum)" style="text;align=left;verticalAlign=top;spacingLeft=4;spacingRight=4;overflow=hidden;rotatable=0;points=[[0,0.5],[1,0.5]];portConstraint=eastwest;rounded=0;shadow=0;html=0;" vertex="1" parent="ML5cCSZE7fHTFNNnrcKf-17">
          <mxGeometry y="722" width="630" height="26" as="geometry" />
        </mxCell>
        <mxCell id="ML5cCSZE7fHTFNNnrcKf-101" value="method(void) : PrintPassengerDetails(Passenger,TravelPackage)" style="text;align=left;verticalAlign=top;spacingLeft=4;spacingRight=4;overflow=hidden;rotatable=0;points=[[0,0.5],[1,0.5]];portConstraint=eastwest;rounded=0;shadow=0;html=0;" vertex="1" parent="ML5cCSZE7fHTFNNnrcKf-17">
          <mxGeometry y="748" width="630" height="26" as="geometry" />
        </mxCell>
        <mxCell id="ML5cCSZE7fHTFNNnrcKf-26" value="PassengerType" style="swimlane;fontStyle=2;align=center;verticalAlign=top;childLayout=stackLayout;horizontal=1;startSize=26;horizontalStack=0;resizeParent=1;resizeLast=0;collapsible=1;marginBottom=0;rounded=0;shadow=0;strokeWidth=1;" vertex="1" parent="WIyWlLk6GJQsqaUBKTNV-1">
          <mxGeometry x="1600" y="610" width="270" height="220" as="geometry">
            <mxRectangle x="230" y="140" width="160" height="26" as="alternateBounds" />
          </mxGeometry>
        </mxCell>
        <mxCell id="ML5cCSZE7fHTFNNnrcKf-27" value="field(PassengerTypeEnum) : standard" style="text;align=left;verticalAlign=top;spacingLeft=4;spacingRight=4;overflow=hidden;rotatable=0;points=[[0,0.5],[1,0.5]];portConstraint=eastwest;" vertex="1" parent="ML5cCSZE7fHTFNNnrcKf-26">
          <mxGeometry y="26" width="270" height="26" as="geometry" />
        </mxCell>
        <mxCell id="ML5cCSZE7fHTFNNnrcKf-28" value="field(PassengerTypeEnum) : gold" style="text;align=left;verticalAlign=top;spacingLeft=4;spacingRight=4;overflow=hidden;rotatable=0;points=[[0,0.5],[1,0.5]];portConstraint=eastwest;rounded=0;shadow=0;html=0;" vertex="1" parent="ML5cCSZE7fHTFNNnrcKf-26">
          <mxGeometry y="52" width="270" height="26" as="geometry" />
        </mxCell>
        <mxCell id="ML5cCSZE7fHTFNNnrcKf-29" value="field(PassengerTypeEnum) : premium" style="text;align=left;verticalAlign=top;spacingLeft=4;spacingRight=4;overflow=hidden;rotatable=0;points=[[0,0.5],[1,0.5]];portConstraint=eastwest;rounded=0;shadow=0;html=0;" vertex="1" parent="ML5cCSZE7fHTFNNnrcKf-26">
          <mxGeometry y="78" width="270" height="26" as="geometry" />
        </mxCell>
        <mxCell id="ML5cCSZE7fHTFNNnrcKf-102" value="Destination" style="swimlane;fontStyle=2;align=center;verticalAlign=top;childLayout=stackLayout;horizontal=1;startSize=26;horizontalStack=0;resizeParent=1;resizeLast=0;collapsible=1;marginBottom=0;rounded=0;shadow=0;strokeWidth=1;" vertex="1" parent="WIyWlLk6GJQsqaUBKTNV-1">
          <mxGeometry x="50" y="1100" width="380" height="330" as="geometry">
            <mxRectangle x="230" y="140" width="160" height="26" as="alternateBounds" />
          </mxGeometry>
        </mxCell>
        <mxCell id="ML5cCSZE7fHTFNNnrcKf-103" value="field(int) : destinationId" style="text;align=left;verticalAlign=top;spacingLeft=4;spacingRight=4;overflow=hidden;rotatable=0;points=[[0,0.5],[1,0.5]];portConstraint=eastwest;" vertex="1" parent="ML5cCSZE7fHTFNNnrcKf-102">
          <mxGeometry y="26" width="380" height="26" as="geometry" />
        </mxCell>
        <mxCell id="ML5cCSZE7fHTFNNnrcKf-104" value="field(String) : destinationName" style="text;align=left;verticalAlign=top;spacingLeft=4;spacingRight=4;overflow=hidden;rotatable=0;points=[[0,0.5],[1,0.5]];portConstraint=eastwest;rounded=0;shadow=0;html=0;" vertex="1" parent="ML5cCSZE7fHTFNNnrcKf-102">
          <mxGeometry y="52" width="380" height="26" as="geometry" />
        </mxCell>
        <mxCell id="ML5cCSZE7fHTFNNnrcKf-105" value="field(List&lt;Activity&gt;) : activityList" style="text;align=left;verticalAlign=top;spacingLeft=4;spacingRight=4;overflow=hidden;rotatable=0;points=[[0,0.5],[1,0.5]];portConstraint=eastwest;rounded=0;shadow=0;html=0;" vertex="1" parent="ML5cCSZE7fHTFNNnrcKf-102">
          <mxGeometry y="78" width="380" height="26" as="geometry" />
        </mxCell>
        <mxCell id="ML5cCSZE7fHTFNNnrcKf-109" value="getter(int) : getDestinationId" style="text;align=left;verticalAlign=top;spacingLeft=4;spacingRight=4;overflow=hidden;rotatable=0;points=[[0,0.5],[1,0.5]];portConstraint=eastwest;rounded=0;shadow=0;html=0;" vertex="1" parent="ML5cCSZE7fHTFNNnrcKf-102">
          <mxGeometry y="104" width="380" height="26" as="geometry" />
        </mxCell>
        <mxCell id="ML5cCSZE7fHTFNNnrcKf-151" value="Add Destination in Destination list" style="endArrow=block;endFill=1;html=1;edgeStyle=orthogonalEdgeStyle;align=left;verticalAlign=top;rounded=0;exitX=0;exitY=0;exitDx=0;exitDy=0;" edge="1" parent="ML5cCSZE7fHTFNNnrcKf-102" source="ML5cCSZE7fHTFNNnrcKf-102">
          <mxGeometry x="-0.0741" y="10" relative="1" as="geometry">
            <mxPoint x="400" y="-10" as="sourcePoint" />
            <mxPoint x="-50" y="-590" as="targetPoint" />
            <mxPoint as="offset" />
            <Array as="points">
              <mxPoint x="-270" />
              <mxPoint x="-270" y="-590" />
            </Array>
          </mxGeometry>
        </mxCell>
        <mxCell id="ML5cCSZE7fHTFNNnrcKf-152" value="1" style="edgeLabel;resizable=0;html=1;align=left;verticalAlign=bottom;" connectable="0" vertex="1" parent="ML5cCSZE7fHTFNNnrcKf-151">
          <mxGeometry x="-1" relative="1" as="geometry" />
        </mxCell>
        <mxCell id="ML5cCSZE7fHTFNNnrcKf-110" value="setter : setDestinationId(int)" style="text;align=left;verticalAlign=top;spacingLeft=4;spacingRight=4;overflow=hidden;rotatable=0;points=[[0,0.5],[1,0.5]];portConstraint=eastwest;rounded=0;shadow=0;html=0;" vertex="1" parent="ML5cCSZE7fHTFNNnrcKf-102">
          <mxGeometry y="130" width="380" height="26" as="geometry" />
        </mxCell>
        <mxCell id="ML5cCSZE7fHTFNNnrcKf-129" value="getter(String) : getDestinationName" style="text;align=left;verticalAlign=top;spacingLeft=4;spacingRight=4;overflow=hidden;rotatable=0;points=[[0,0.5],[1,0.5]];portConstraint=eastwest;rounded=0;shadow=0;html=0;" vertex="1" parent="ML5cCSZE7fHTFNNnrcKf-102">
          <mxGeometry y="156" width="380" height="26" as="geometry" />
        </mxCell>
        <mxCell id="ML5cCSZE7fHTFNNnrcKf-130" value="setter : setDestinationName(String)" style="text;align=left;verticalAlign=top;spacingLeft=4;spacingRight=4;overflow=hidden;rotatable=0;points=[[0,0.5],[1,0.5]];portConstraint=eastwest;rounded=0;shadow=0;html=0;" vertex="1" parent="ML5cCSZE7fHTFNNnrcKf-102">
          <mxGeometry y="182" width="380" height="26" as="geometry" />
        </mxCell>
        <mxCell id="ML5cCSZE7fHTFNNnrcKf-131" value="getter(List&lt;Activity&gt;) : getActivityLiist" style="text;align=left;verticalAlign=top;spacingLeft=4;spacingRight=4;overflow=hidden;rotatable=0;points=[[0,0.5],[1,0.5]];portConstraint=eastwest;rounded=0;shadow=0;html=0;" vertex="1" parent="ML5cCSZE7fHTFNNnrcKf-102">
          <mxGeometry y="208" width="380" height="26" as="geometry" />
        </mxCell>
        <mxCell id="ML5cCSZE7fHTFNNnrcKf-132" value="method(Activity) : getActivityByIdFromActivityList(int)" style="text;align=left;verticalAlign=top;spacingLeft=4;spacingRight=4;overflow=hidden;rotatable=0;points=[[0,0.5],[1,0.5]];portConstraint=eastwest;rounded=0;shadow=0;html=0;" vertex="1" parent="ML5cCSZE7fHTFNNnrcKf-102">
          <mxGeometry y="234" width="380" height="26" as="geometry" />
        </mxCell>
        <mxCell id="ML5cCSZE7fHTFNNnrcKf-133" value="method(void) : addActivityInList(iActivity)" style="text;align=left;verticalAlign=top;spacingLeft=4;spacingRight=4;overflow=hidden;rotatable=0;points=[[0,0.5],[1,0.5]];portConstraint=eastwest;rounded=0;shadow=0;html=0;" vertex="1" parent="ML5cCSZE7fHTFNNnrcKf-102">
          <mxGeometry y="260" width="380" height="26" as="geometry" />
        </mxCell>
        <mxCell id="ML5cCSZE7fHTFNNnrcKf-134" value="method(void) : printDestinationDetails(iDestination, TravelPackage)" style="text;align=left;verticalAlign=top;spacingLeft=4;spacingRight=4;overflow=hidden;rotatable=0;points=[[0,0.5],[1,0.5]];portConstraint=eastwest;rounded=0;shadow=0;html=0;" vertex="1" parent="ML5cCSZE7fHTFNNnrcKf-102">
          <mxGeometry y="286" width="380" height="26" as="geometry" />
        </mxCell>
        <mxCell id="ML5cCSZE7fHTFNNnrcKf-147" value="AddPassengerInList" style="endArrow=block;endFill=1;html=1;edgeStyle=orthogonalEdgeStyle;align=left;verticalAlign=top;rounded=0;exitX=-0.008;exitY=0.021;exitDx=0;exitDy=0;exitPerimeter=0;" edge="1" parent="WIyWlLk6GJQsqaUBKTNV-1" source="ML5cCSZE7fHTFNNnrcKf-17" target="ML5cCSZE7fHTFNNnrcKf-66">
          <mxGeometry x="-0.0871" y="-65" relative="1" as="geometry">
            <mxPoint x="570" y="81" as="sourcePoint" />
            <mxPoint x="520" y="480" as="targetPoint" />
            <mxPoint as="offset" />
          </mxGeometry>
        </mxCell>
        <mxCell id="ML5cCSZE7fHTFNNnrcKf-148" value="1" style="edgeLabel;resizable=0;html=1;align=left;verticalAlign=bottom;" connectable="0" vertex="1" parent="ML5cCSZE7fHTFNNnrcKf-147">
          <mxGeometry x="-1" relative="1" as="geometry" />
        </mxCell>
        <mxCell id="ML5cCSZE7fHTFNNnrcKf-149" value="AddSubscribedPassengerInList" style="endArrow=block;endFill=1;html=1;edgeStyle=orthogonalEdgeStyle;align=left;verticalAlign=top;rounded=0;" edge="1" parent="WIyWlLk6GJQsqaUBKTNV-1">
          <mxGeometry x="0.9368" y="50" relative="1" as="geometry">
            <mxPoint x="580" y="110" as="sourcePoint" />
            <mxPoint x="390" y="610" as="targetPoint" />
            <mxPoint as="offset" />
            <Array as="points">
              <mxPoint x="580" y="130" />
              <mxPoint x="550" y="130" />
              <mxPoint x="550" y="740" />
              <mxPoint x="470" y="740" />
              <mxPoint x="470" y="610" />
            </Array>
          </mxGeometry>
        </mxCell>
        <mxCell id="ML5cCSZE7fHTFNNnrcKf-150" value="1" style="edgeLabel;resizable=0;html=1;align=left;verticalAlign=bottom;" connectable="0" vertex="1" parent="ML5cCSZE7fHTFNNnrcKf-149">
          <mxGeometry x="-1" relative="1" as="geometry" />
        </mxCell>
        <mxCell id="ML5cCSZE7fHTFNNnrcKf-154" value="Add Activity in list" style="endArrow=block;endFill=1;html=1;edgeStyle=orthogonalEdgeStyle;align=left;verticalAlign=top;rounded=0;" edge="1" parent="WIyWlLk6GJQsqaUBKTNV-1">
          <mxGeometry x="-0.172" y="-60" relative="1" as="geometry">
            <mxPoint x="700" y="1121" as="sourcePoint" />
            <mxPoint x="430" y="1380" as="targetPoint" />
            <Array as="points">
              <mxPoint x="610" y="1121" />
              <mxPoint x="610" y="1380" />
            </Array>
            <mxPoint as="offset" />
          </mxGeometry>
        </mxCell>
        <mxCell id="ML5cCSZE7fHTFNNnrcKf-155" value="1" style="edgeLabel;resizable=0;html=1;align=left;verticalAlign=bottom;" connectable="0" vertex="1" parent="ML5cCSZE7fHTFNNnrcKf-154">
          <mxGeometry x="-1" relative="1" as="geometry" />
        </mxCell>
        <mxCell id="ML5cCSZE7fHTFNNnrcKf-156" value="Set Passenger Type" style="html=1;verticalAlign=bottom;startArrow=oval;startFill=1;endArrow=block;startSize=8;curved=0;rounded=0;exitX=-0.004;exitY=-0.115;exitDx=0;exitDy=0;exitPerimeter=0;entryX=1.003;entryY=0.808;entryDx=0;entryDy=0;entryPerimeter=0;" edge="1" parent="WIyWlLk6GJQsqaUBKTNV-1" source="ML5cCSZE7fHTFNNnrcKf-27" target="ML5cCSZE7fHTFNNnrcKf-91">
          <mxGeometry width="60" relative="1" as="geometry">
            <mxPoint x="1280" y="1000" as="sourcePoint" />
            <mxPoint x="1270" y="890" as="targetPoint" />
          </mxGeometry>
        </mxCell>
        <mxCell id="ML5cCSZE7fHTFNNnrcKf-157" value="&lt;font style=&quot;font-size: 35px;&quot;&gt;&lt;b&gt;High Level UML Diagram&lt;/b&gt;&lt;/font&gt;" style="text;html=1;align=center;verticalAlign=middle;whiteSpace=wrap;rounded=0;" vertex="1" parent="WIyWlLk6GJQsqaUBKTNV-1">
          <mxGeometry x="310" y="-200" width="630" height="180" as="geometry" />
        </mxCell>
      </root>
    </mxGraphModel>
  </diagram>
</mxfile>
